<mxfile host="app.diagrams.net" agent="Mozilla/5.0 (Windows NT 10.0; Win64; x64) AppleWebKit/537.36 (KHTML, like Gecko) Chrome/126.0.0.0 Safari/537.36" version="24.7.5">
  <diagram name="페이지-1" id="5M28LgMas51DpsEvbf_A">
    <mxGraphModel dx="891" dy="907" grid="1" gridSize="10" guides="1" tooltips="1" connect="1" arrows="1" fold="1" page="1" pageScale="1" pageWidth="827" pageHeight="1169" math="0" shadow="0">
      <root>
        <mxCell id="0" />
        <mxCell id="1" parent="0" />
        <mxCell id="XeUWuyvjinkPSY21bzyg-10" style="rounded=0;orthogonalLoop=1;jettySize=auto;html=1;" parent="1" source="XeUWuyvjinkPSY21bzyg-2" target="XeUWuyvjinkPSY21bzyg-6" edge="1">
          <mxGeometry relative="1" as="geometry" />
        </mxCell>
        <mxCell id="XeUWuyvjinkPSY21bzyg-11" style="rounded=0;orthogonalLoop=1;jettySize=auto;html=1;" parent="1" source="XeUWuyvjinkPSY21bzyg-2" target="XeUWuyvjinkPSY21bzyg-5" edge="1">
          <mxGeometry relative="1" as="geometry" />
        </mxCell>
        <mxCell id="XeUWuyvjinkPSY21bzyg-12" style="rounded=0;orthogonalLoop=1;jettySize=auto;html=1;" parent="1" source="XeUWuyvjinkPSY21bzyg-2" target="XeUWuyvjinkPSY21bzyg-7" edge="1">
          <mxGeometry relative="1" as="geometry" />
        </mxCell>
        <mxCell id="XeUWuyvjinkPSY21bzyg-13" style="rounded=0;orthogonalLoop=1;jettySize=auto;html=1;entryX=0.5;entryY=0;entryDx=0;entryDy=0;" parent="1" source="XeUWuyvjinkPSY21bzyg-2" target="XeUWuyvjinkPSY21bzyg-4" edge="1">
          <mxGeometry relative="1" as="geometry" />
        </mxCell>
        <mxCell id="XeUWuyvjinkPSY21bzyg-15" style="rounded=0;orthogonalLoop=1;jettySize=auto;html=1;" parent="1" source="XeUWuyvjinkPSY21bzyg-2" edge="1">
          <mxGeometry relative="1" as="geometry">
            <mxPoint x="94.60286283338633" y="362.5887432256036" as="targetPoint" />
          </mxGeometry>
        </mxCell>
        <mxCell id="XUEg0vj3bntyuODUgJ8_-4" style="rounded=0;orthogonalLoop=1;jettySize=auto;html=1;" edge="1" parent="1" source="XeUWuyvjinkPSY21bzyg-2" target="XUEg0vj3bntyuODUgJ8_-1">
          <mxGeometry relative="1" as="geometry" />
        </mxCell>
        <mxCell id="XeUWuyvjinkPSY21bzyg-2" value="메모장" style="whiteSpace=wrap;html=1;align=center;fillColor=#dae8fc;strokeColor=#6c8ebf;" parent="1" vertex="1">
          <mxGeometry x="200" y="130" width="390" height="40" as="geometry" />
        </mxCell>
        <mxCell id="XeUWuyvjinkPSY21bzyg-4" value="작성일자" style="ellipse;whiteSpace=wrap;html=1;align=center;" parent="1" vertex="1">
          <mxGeometry x="274" y="360" width="100" height="40" as="geometry" />
        </mxCell>
        <mxCell id="XeUWuyvjinkPSY21bzyg-5" value="메모내용" style="ellipse;whiteSpace=wrap;html=1;align=center;" parent="1" vertex="1">
          <mxGeometry x="599" y="360" width="100" height="40" as="geometry" />
        </mxCell>
        <mxCell id="XeUWuyvjinkPSY21bzyg-6" value="이미지파일" style="ellipse;whiteSpace=wrap;html=1;align=center;" parent="1" vertex="1">
          <mxGeometry x="700" y="360" width="100" height="40" as="geometry" />
        </mxCell>
        <mxCell id="XeUWuyvjinkPSY21bzyg-7" value="작성시간" style="ellipse;whiteSpace=wrap;html=1;align=center;" parent="1" vertex="1">
          <mxGeometry x="383" y="360" width="100" height="40" as="geometry" />
        </mxCell>
        <mxCell id="XeUWuyvjinkPSY21bzyg-8" value="작성자" style="ellipse;whiteSpace=wrap;html=1;align=center;" parent="1" vertex="1">
          <mxGeometry x="166" y="360" width="100" height="40" as="geometry" />
        </mxCell>
        <mxCell id="XeUWuyvjinkPSY21bzyg-14" style="rounded=0;orthogonalLoop=1;jettySize=auto;html=1;entryX=0.57;entryY=0.025;entryDx=0;entryDy=0;entryPerimeter=0;" parent="1" source="XeUWuyvjinkPSY21bzyg-2" target="XeUWuyvjinkPSY21bzyg-8" edge="1">
          <mxGeometry relative="1" as="geometry" />
        </mxCell>
        <mxCell id="XeUWuyvjinkPSY21bzyg-16" value="일련번호" style="ellipse;whiteSpace=wrap;html=1;align=center;fontStyle=4;fillColor=#ffe6cc;strokeColor=#d79b00;" parent="1" vertex="1">
          <mxGeometry x="50" y="360" width="100" height="40" as="geometry" />
        </mxCell>
        <mxCell id="XUEg0vj3bntyuODUgJ8_-1" value="제목" style="ellipse;whiteSpace=wrap;html=1;align=center;" vertex="1" parent="1">
          <mxGeometry x="491" y="360" width="100" height="40" as="geometry" />
        </mxCell>
      </root>
    </mxGraphModel>
  </diagram>
</mxfile>
